<svg xmlns="http://www.w3.org/2000/svg" width="50" height="45" viewBox="0 0 50 45">
  <g fill="none" fill-rule="evenodd" transform="translate(0 .958)">
    <path fill="#C8252D" d="M27.9335713,4.24663286 C32.3705123,0.285345394 36.6691493,-0.502426564 40.173473,0.261515994 C46.3242619,1.60156936 50.4574948,7.72198744 49.4071322,14.2788106 C48.9338149,17.2336563 47.5157319,20.2814834 45.294458,23.2620275 C43.7413417,25.3463992 41.9340452,27.1364078 40.0702122,28.9025869 L24.6829607,43.4726302 L24.6829607,33.8628402 L34.8683942,24.033446 C38.3783248,20.6464003 41.0990817,17.3878466 41.9480625,14.4675769 C42.9802026,10.9174634 40.2585112,7.069716 36.7509169,6.96598802 C34.441334,6.89730327 32.2695878,8.70880498 29.8609493,10.8613942 L24.7820162,15.4006614 L24.7820162,7.10195578 L27.9335713,4.24663286 Z"/>
    <path fill="#EB4A3B" d="M21.6367689,4.24663286 L24.788324,7.10195578 L24.788324,15.4006614 L19.7093909,10.8613942 C17.3007525,8.70880498 15.1290063,6.89730327 12.8194234,6.96598802 C9.311829,7.069716 6.59013762,10.9174634 7.62227775,14.4675769 C8.47125857,17.3878466 11.1920155,20.6464003 14.701946,24.033446 L24.6902029,33.8628402 L24.6902029,43.4726302 L9.50012799,28.9025869 C7.63629505,27.1364078 5.82899853,25.3463992 4.27588228,23.2620275 C2.05460832,20.2814834 0.636525349,17.2336563 0.163208034,14.2788106 C-0.887154578,7.72198744 3.24607837,1.60156936 9.39686725,0.261515994 C12.9011909,-0.502426564 17.1998279,0.285345394 21.6367689,4.24663286"/>
  </g>
</svg>
